<mxfile host="app.diagrams.net" modified="2022-06-23T13:01:36.249Z" agent="5.0 (Windows NT 10.0; WOW64) AppleWebKit/537.36 (KHTML, like Gecko) Chrome/80.0.3987.87 Safari/537.36 SE 2.X MetaSr 1.0" etag="9uIkjp-szKTVwMdblSJx" version="20.0.3" type="github">
  <diagram id="LS7x0DmHRW37v-bD-KIZ" name="Page-1">
    <mxGraphModel dx="1008" dy="566" grid="0" gridSize="10" guides="1" tooltips="1" connect="1" arrows="1" fold="1" page="1" pageScale="1" pageWidth="827" pageHeight="1169" math="0" shadow="0">
      <root>
        <mxCell id="0" />
        <mxCell id="1" parent="0" />
        <mxCell id="amlk9hC_0njk0hpj3JQ6-3" style="edgeStyle=orthogonalEdgeStyle;rounded=0;orthogonalLoop=1;jettySize=auto;html=1;entryX=0.5;entryY=0;entryDx=0;entryDy=0;fontSize=14;" edge="1" parent="1" source="amlk9hC_0njk0hpj3JQ6-1" target="amlk9hC_0njk0hpj3JQ6-2">
          <mxGeometry relative="1" as="geometry" />
        </mxCell>
        <mxCell id="amlk9hC_0njk0hpj3JQ6-1" value="&lt;font style=&quot;font-size: 14px;&quot;&gt;Main(./OPDistributor,./OPDistributor.conf&lt;/font&gt;" style="rounded=0;whiteSpace=wrap;html=1;" vertex="1" parent="1">
          <mxGeometry x="114" y="127" width="283" height="60" as="geometry" />
        </mxCell>
        <mxCell id="amlk9hC_0njk0hpj3JQ6-5" style="edgeStyle=orthogonalEdgeStyle;rounded=0;orthogonalLoop=1;jettySize=auto;html=1;entryX=0.5;entryY=0;entryDx=0;entryDy=0;fontSize=14;fontColor=#000000;" edge="1" parent="1" source="amlk9hC_0njk0hpj3JQ6-2" target="amlk9hC_0njk0hpj3JQ6-4">
          <mxGeometry relative="1" as="geometry" />
        </mxCell>
        <mxCell id="amlk9hC_0njk0hpj3JQ6-2" value="多线程创建：&lt;br&gt;&lt;span style=&quot;text-align: start; font-family: Menlo, &amp;quot;Liberation Mono&amp;quot;, Consolas, &amp;quot;DejaVu Sans Mono&amp;quot;, &amp;quot;Ubuntu Mono&amp;quot;, &amp;quot;Courier New&amp;quot;, &amp;quot;andale mono&amp;quot;, &amp;quot;lucida console&amp;quot;, monospace; font-size: 13px; font-style: italic; background-color: rgb(255, 255, 255);&quot;&gt;low_two_bit标记进程处理的低二位（00|01|10|11）&lt;/span&gt;&lt;br&gt;&lt;span style=&quot;text-align: start; color: rgb(153, 153, 136); font-family: Menlo, &amp;quot;Liberation Mono&amp;quot;, Consolas, &amp;quot;DejaVu Sans Mono&amp;quot;, &amp;quot;Ubuntu Mono&amp;quot;, &amp;quot;Courier New&amp;quot;, &amp;quot;andale mono&amp;quot;, &amp;quot;lucida console&amp;quot;, monospace; font-size: 13px; font-style: italic; background-color: rgb(255, 255, 255);&quot;&gt;//从1开始，创建3个子进程，加上父进程共4个，每个进程处理uin低两位特定的值。&lt;br&gt;&lt;/span&gt;" style="rounded=1;whiteSpace=wrap;html=1;fontSize=14;fontColor=#000000;arcSize=0;" vertex="1" parent="1">
          <mxGeometry x="117" y="206" width="278" height="107" as="geometry" />
        </mxCell>
        <mxCell id="amlk9hC_0njk0hpj3JQ6-6" value="进入死循环f(;;)" style="edgeStyle=orthogonalEdgeStyle;rounded=0;orthogonalLoop=1;jettySize=auto;html=1;fontSize=14;fontColor=#000000;" edge="1" parent="1" source="amlk9hC_0njk0hpj3JQ6-4">
          <mxGeometry x="-0.0182" y="14" relative="1" as="geometry">
            <mxPoint x="487.555623372396" y="394" as="targetPoint" />
            <mxPoint as="offset" />
          </mxGeometry>
        </mxCell>
        <mxCell id="amlk9hC_0njk0hpj3JQ6-4" value="epoller.add(conf.socket_fd,EPOLLIN)注册监听事件" style="rounded=1;whiteSpace=wrap;html=1;fontSize=14;fontColor=#000000;" vertex="1" parent="1">
          <mxGeometry x="138.5" y="364" width="236" height="60" as="geometry" />
        </mxCell>
        <mxCell id="amlk9hC_0njk0hpj3JQ6-7" value="" style="shape=curlyBracket;whiteSpace=wrap;html=1;rounded=1;fontSize=14;fontColor=#000000;" vertex="1" parent="1">
          <mxGeometry x="486" y="292" width="20" height="204" as="geometry" />
        </mxCell>
        <mxCell id="amlk9hC_0njk0hpj3JQ6-8" value="1. uin用户信息过滤" style="rounded=0;whiteSpace=wrap;html=1;fontSize=14;fontColor=#000000;" vertex="1" parent="1">
          <mxGeometry x="506" y="273" width="214" height="39" as="geometry" />
        </mxCell>
        <mxCell id="amlk9hC_0njk0hpj3JQ6-9" value="2. 交给进程处理SendToWorker()" style="rounded=0;whiteSpace=wrap;html=1;fontSize=14;fontColor=#000000;" vertex="1" parent="1">
          <mxGeometry x="506" y="374.5" width="214" height="39" as="geometry" />
        </mxCell>
        <mxCell id="amlk9hC_0njk0hpj3JQ6-10" value="3. 心跳判断CheckPingTimeout(conf)" style="rounded=0;whiteSpace=wrap;html=1;fontSize=14;fontColor=#000000;" vertex="1" parent="1">
          <mxGeometry x="506" y="476" width="214" height="39" as="geometry" />
        </mxCell>
      </root>
    </mxGraphModel>
  </diagram>
</mxfile>
